<?xml version="1.0" encoding="UTF-8" standalone="no"?><svg xmlns="http://www.w3.org/2000/svg" xmlns:xlink="http://www.w3.org/1999/xlink" contentScriptType="application/ecmascript" contentStyleType="text/css" height="411px" preserveAspectRatio="none" style="width:796px;height:411px;" version="1.1" viewBox="0 0 796 411" width="796px" zoomAndPan="magnify"><defs><filter height="300%" id="f1j3s4jtws2x7n" width="300%" x="-1" y="-1"><feGaussianBlur result="blurOut" stdDeviation="2.0"/><feColorMatrix in="blurOut" result="blurOut2" type="matrix" values="0 0 0 0 0 0 0 0 0 0 0 0 0 0 0 0 0 0 .4 0"/><feOffset dx="4.0" dy="4.0" in="blurOut2" result="blurOut3"/><feBlend in="SourceGraphic" in2="blurOut3" mode="normal"/></filter></defs><g><!--cluster de.gematik.ti.openhealthcard.events.control--><polygon fill="#FFFFFF" filter="url(#f1j3s4jtws2x7n)" points="22,24,340,24,347,47.6094,774,47.6094,774,399,22,399,22,24" style="stroke: #000000; stroke-width: 1.5;"/><line style="stroke: #000000; stroke-width: 1.5;" x1="22" x2="347" y1="47.6094" y2="47.6094"/><text fill="#000000" font-family="sans-serif" font-size="14" font-weight="bold" lengthAdjust="spacingAndGlyphs" textLength="312" x="26" y="40.5332">de.gematik.ti.openhealthcard.events.control</text><!--class de.gematik.ti.openhealthcard.events.control.CommonEventTransmitter--><rect fill="#FEFECE" filter="url(#f1j3s4jtws2x7n)" height="172.5234" id="de.gematik.ti.openhealthcard.events.control.CommonEventTransmitter" style="stroke: #A80036; stroke-width: 1.5;" width="177" x="76.5" y="60"/><ellipse cx="91.5" cy="76" fill="#ADD1B2" rx="11" ry="11" style="stroke: #A80036; stroke-width: 1.0;"/><path d="M93.5,72.5 Q93.7031,72 93.9375,71.75 Q94.1719,71.5 94.4375,71.5 Q94.9063,71.5 95.2031,71.7813 Q95.5,72.0625 95.5,72.7188 L95.5,74.2813 Q95.5,74.9375 95.2188,75.2188 Q94.9375,75.5 94.5,75.5 Q94.1094,75.5 93.8594,75.3281 Q93.6094,75.1563 93.5,74.7031 Q93.4531,74.3906 93.2813,74.2188 Q92.9688,73.8906 92.4063,73.7031 Q91.8438,73.5 91.2813,73.5 Q90.5781,73.5 89.9844,73.7813 Q89.4063,74.0625 88.9531,74.6875 Q88.5,75.3125 88.5,76.1719 L88.5,77.0938 Q88.5,78.125 89.3438,78.8125 Q90.1875,79.5 91.6875,79.5 Q92.5781,79.5 93.2031,79.2969 Q93.5625,79.1875 93.9688,78.8281 Q94.2344,78.625 94.375,78.5625 Q94.5156,78.5 94.6875,78.5 Q95.0156,78.5 95.25,78.7656 Q95.5,79.0156 95.5,79.375 Q95.5,79.7188 95.1563,80.125 Q94.6563,80.7188 93.8594,81.0469 Q92.8125,81.5 91.5313,81.5 Q90.0313,81.5 88.8281,80.9063 Q87.8594,80.4375 87.1719,79.4219 Q86.5,78.4063 86.5,77.2031 L86.5,76.1094 Q86.5,74.8594 87.0938,73.7656 Q87.7031,72.6719 88.75,72.0938 Q89.8125,71.5 91,71.5 Q91.7188,71.5 92.3438,71.75 Q92.9688,72 93.5,72.5 Z "/><text fill="#000000" font-family="sans-serif" font-size="12" lengthAdjust="spacingAndGlyphs" textLength="145" x="105.5" y="80.9102">CommonEventTransmitter</text><line style="stroke: #A80036; stroke-width: 1.5;" x1="77.5" x2="252.5" y1="92" y2="92"/><rect fill="none" height="6" style="stroke: #C82930; stroke-width: 1.0;" width="6" x="84.5" y="101.418"/><text fill="#000000" font-family="sans-serif" font-size="11" lengthAdjust="spacingAndGlyphs" text-decoration="underline" textLength="101" x="96.5" y="107.4189">packageFilter : String</text><line style="stroke: #A80036; stroke-width: 1.5;" x1="77.5" x2="252.5" y1="113.8359" y2="113.8359"/><ellipse cx="87.5" cy="126.2539" fill="#84BE84" rx="3" ry="3" style="stroke: #038048; stroke-width: 1.0;"/><text fill="#000000" font-family="sans-serif" font-size="11" lengthAdjust="spacingAndGlyphs" text-decoration="underline" textLength="53" x="96.5" y="129.2549">postError()</text><ellipse cx="87.5" cy="140.0898" fill="#84BE84" rx="3" ry="3" style="stroke: #038048; stroke-width: 1.0;"/><text fill="#000000" font-family="sans-serif" font-size="11" lengthAdjust="spacingAndGlyphs" text-decoration="underline" textLength="53" x="96.5" y="143.0908">postError()</text><ellipse cx="87.5" cy="153.9258" fill="#84BE84" rx="3" ry="3" style="stroke: #038048; stroke-width: 1.0;"/><text fill="#000000" font-family="sans-serif" font-size="11" lengthAdjust="spacingAndGlyphs" text-decoration="underline" textLength="47" x="96.5" y="156.9268">postInfo()</text><ellipse cx="87.5" cy="167.7617" fill="#84BE84" rx="3" ry="3" style="stroke: #038048; stroke-width: 1.0;"/><text fill="#000000" font-family="sans-serif" font-size="11" lengthAdjust="spacingAndGlyphs" text-decoration="underline" textLength="55" x="96.5" y="170.7627">postWarn()</text><ellipse cx="87.5" cy="181.5977" fill="#84BE84" rx="3" ry="3" style="stroke: #038048; stroke-width: 1.0;"/><text fill="#000000" font-family="sans-serif" font-size="11" lengthAdjust="spacingAndGlyphs" text-decoration="underline" textLength="87" x="96.5" y="184.5986">setPackageFilter()</text><rect fill="#F24D5C" height="6" style="stroke: #C82930; stroke-width: 1.0;" width="6" x="84.5" y="192.4336"/><text fill="#000000" font-family="sans-serif" font-size="11" lengthAdjust="spacingAndGlyphs" textLength="130" x="96.5" y="198.4346">CommonEventTransmitter()</text><rect fill="#F24D5C" height="6" style="stroke: #C82930; stroke-width: 1.0;" width="6" x="84.5" y="206.2695"/><text fill="#000000" font-family="sans-serif" font-size="11" lengthAdjust="spacingAndGlyphs" text-decoration="underline" textLength="129" x="96.5" y="212.2705">checkStackTraceElement()</text><rect fill="#F24D5C" height="6" style="stroke: #C82930; stroke-width: 1.0;" width="6" x="84.5" y="220.1055"/><text fill="#000000" font-family="sans-serif" font-size="11" lengthAdjust="spacingAndGlyphs" text-decoration="underline" textLength="80" x="96.5" y="226.1064">findClassName()</text><!--class de.gematik.ti.openhealthcard.events.control.PinType--><rect fill="#FEFECE" filter="url(#f1j3s4jtws2x7n)" height="158.6875" id="de.gematik.ti.openhealthcard.events.control.PinType" style="stroke: #A80036; stroke-width: 1.5;" width="102" x="289" y="67"/><ellipse cx="315.7" cy="83" fill="#EB937F" rx="11" ry="11" style="stroke: #A80036; stroke-width: 1.0;"/><path d="M314.2,84 L314.2,86 L318.2,86 L318.2,85 L318.2,84.5156 L318.825,84 L319.2,84 L319.575,84 L320.2,84.5156 L320.2,85 L320.2,88 L312.2,88 L311.7156,88 L311.2,87.375 L311.2,87 L311.2,86.625 L311.7156,86 L312.2,86 L312.2,86 L312.2,80 L312.2,80 L311.7156,80 L311.2,79.375 L311.2,79 L311.2,78.625 L311.7156,78 L312.2,78 L320.2,78 L320.2,81 L320.2,81.4844 L319.575,82 L319.2,82 L318.825,82 L318.2,81.4844 L318.2,81 L318.2,80 L314.2,80 L314.2,82 L315.2,82 L315.2,81.5156 L315.2,81.5156 L315.825,81 L316.2,81 L316.575,81 L317.2,81.5156 L317.2,82 L317.2,84 L317.2,84.4844 L316.575,85 L316.575,85 L316.2,85 L315.825,85 L315.2,84.4844 L315.2,84.4844 L315.2,84 L314.2,84 Z "/><text fill="#000000" font-family="sans-serif" font-size="12" lengthAdjust="spacingAndGlyphs" textLength="44" x="332.3" y="87.9102">PinType</text><line style="stroke: #A80036; stroke-width: 1.5;" x1="290" x2="390" y1="99" y2="99"/><text fill="#000000" font-family="sans-serif" font-size="11" lengthAdjust="spacingAndGlyphs" textLength="65" x="295" y="114.4189">MRPIN_AMTS</text><text fill="#000000" font-family="sans-serif" font-size="11" lengthAdjust="spacingAndGlyphs" textLength="55" x="295" y="128.2549">MRPIN_DPE</text><text fill="#000000" font-family="sans-serif" font-size="11" lengthAdjust="spacingAndGlyphs" textLength="89" x="295" y="142.0908">MRPIN_DPE_READ</text><text fill="#000000" font-family="sans-serif" font-size="11" lengthAdjust="spacingAndGlyphs" textLength="58" x="295" y="155.9268">MRPIN_GDD</text><text fill="#000000" font-family="sans-serif" font-size="11" lengthAdjust="spacingAndGlyphs" textLength="56" x="295" y="169.7627">MRPIN_NFD</text><text fill="#000000" font-family="sans-serif" font-size="11" lengthAdjust="spacingAndGlyphs" textLength="90" x="295" y="183.5986">MRPIN_NFD_READ</text><text fill="#000000" font-family="sans-serif" font-size="11" lengthAdjust="spacingAndGlyphs" textLength="57" x="295" y="197.4346">MRPIN_OSE</text><text fill="#000000" font-family="sans-serif" font-size="11" lengthAdjust="spacingAndGlyphs" textLength="35" x="295" y="211.2705">PIN_CH</text><line style="stroke: #A80036; stroke-width: 1.5;" x1="290" x2="390" y1="217.6875" y2="217.6875"/><!--class de.gematik.ti.openhealthcard.events.control.RequestTransmitter--><rect fill="#FEFECE" filter="url(#f1j3s4jtws2x7n)" height="117.1797" id="de.gematik.ti.openhealthcard.events.control.RequestTransmitter" style="stroke: #A80036; stroke-width: 1.5;" width="169" x="426.5" y="88"/><ellipse cx="453.65" cy="104" fill="#ADD1B2" rx="11" ry="11" style="stroke: #A80036; stroke-width: 1.0;"/><path d="M455.65,100.5 Q455.8531,100 456.0875,99.75 Q456.3219,99.5 456.5875,99.5 Q457.0563,99.5 457.3531,99.7813 Q457.65,100.0625 457.65,100.7188 L457.65,102.2813 Q457.65,102.9375 457.3688,103.2188 Q457.0875,103.5 456.65,103.5 Q456.2594,103.5 456.0094,103.3281 Q455.7594,103.1563 455.65,102.7031 Q455.6031,102.3906 455.4313,102.2188 Q455.1188,101.8906 454.5563,101.7031 Q453.9938,101.5 453.4313,101.5 Q452.7281,101.5 452.1344,101.7813 Q451.5563,102.0625 451.1031,102.6875 Q450.65,103.3125 450.65,104.1719 L450.65,105.0938 Q450.65,106.125 451.4938,106.8125 Q452.3375,107.5 453.8375,107.5 Q454.7281,107.5 455.3531,107.2969 Q455.7125,107.1875 456.1188,106.8281 Q456.3844,106.625 456.525,106.5625 Q456.6656,106.5 456.8375,106.5 Q457.1656,106.5 457.4,106.7656 Q457.65,107.0156 457.65,107.375 Q457.65,107.7188 457.3063,108.125 Q456.8063,108.7188 456.0094,109.0469 Q454.9625,109.5 453.6813,109.5 Q452.1813,109.5 450.9781,108.9063 Q450.0094,108.4375 449.3219,107.4219 Q448.65,106.4063 448.65,105.2031 L448.65,104.1094 Q448.65,102.8594 449.2438,101.7656 Q449.8531,100.6719 450.9,100.0938 Q451.9625,99.5 453.15,99.5 Q453.8688,99.5 454.4938,99.75 Q455.1188,100 455.65,100.5 Z "/><text fill="#000000" font-family="sans-serif" font-size="12" lengthAdjust="spacingAndGlyphs" textLength="110" x="470.35" y="108.9102">RequestTransmitter</text><line style="stroke: #A80036; stroke-width: 1.5;" x1="427.5" x2="594.5" y1="120" y2="120"/><line style="stroke: #A80036; stroke-width: 1.5;" x1="427.5" x2="594.5" y1="128" y2="128"/><ellipse cx="437.5" cy="140.418" fill="#84BE84" rx="3" ry="3" style="stroke: #038048; stroke-width: 1.0;"/><text fill="#000000" font-family="sans-serif" font-size="11" lengthAdjust="spacingAndGlyphs" textLength="105" x="446.5" y="143.4189">cardAccessNumber()</text><ellipse cx="437.5" cy="154.2539" fill="#84BE84" rx="3" ry="3" style="stroke: #038048; stroke-width: 1.0;"/><text fill="#000000" font-family="sans-serif" font-size="11" lengthAdjust="spacingAndGlyphs" textLength="51" x="446.5" y="157.2549">paceKey()</text><ellipse cx="437.5" cy="168.0898" fill="#84BE84" rx="3" ry="3" style="stroke: #038048; stroke-width: 1.0;"/><text fill="#000000" font-family="sans-serif" font-size="11" lengthAdjust="spacingAndGlyphs" textLength="59" x="446.5" y="171.0908">pinNumber()</text><ellipse cx="437.5" cy="181.9258" fill="#84BE84" rx="3" ry="3" style="stroke: #038048; stroke-width: 1.0;"/><text fill="#000000" font-family="sans-serif" font-size="11" lengthAdjust="spacingAndGlyphs" textLength="143" x="446.5" y="184.9268">requestCardAccessNumber()</text><ellipse cx="437.5" cy="195.7617" fill="#84BE84" rx="3" ry="3" style="stroke: #038048; stroke-width: 1.0;"/><text fill="#000000" font-family="sans-serif" font-size="11" lengthAdjust="spacingAndGlyphs" textLength="88" x="446.5" y="198.7627">requestPaceKey()</text><!--class de.gematik.ti.openhealthcard.events.control.RequestTransmitterCardAccessNumber--><rect fill="#FEFECE" filter="url(#f1j3s4jtws2x7n)" height="89.5078" id="de.gematik.ti.openhealthcard.events.control.RequestTransmitterCardAccessNumber" style="stroke: #A80036; stroke-width: 1.5;" width="254" x="38" y="293"/><ellipse cx="53" cy="309" fill="#ADD1B2" rx="11" ry="11" style="stroke: #A80036; stroke-width: 1.0;"/><path d="M55,305.5 Q55.2031,305 55.4375,304.75 Q55.6719,304.5 55.9375,304.5 Q56.4063,304.5 56.7031,304.7813 Q57,305.0625 57,305.7188 L57,307.2813 Q57,307.9375 56.7188,308.2188 Q56.4375,308.5 56,308.5 Q55.6094,308.5 55.3594,308.3281 Q55.1094,308.1563 55,307.7031 Q54.9531,307.3906 54.7813,307.2188 Q54.4688,306.8906 53.9063,306.7031 Q53.3438,306.5 52.7813,306.5 Q52.0781,306.5 51.4844,306.7813 Q50.9063,307.0625 50.4531,307.6875 Q50,308.3125 50,309.1719 L50,310.0938 Q50,311.125 50.8438,311.8125 Q51.6875,312.5 53.1875,312.5 Q54.0781,312.5 54.7031,312.2969 Q55.0625,312.1875 55.4688,311.8281 Q55.7344,311.625 55.875,311.5625 Q56.0156,311.5 56.1875,311.5 Q56.5156,311.5 56.75,311.7656 Q57,312.0156 57,312.375 Q57,312.7188 56.6563,313.125 Q56.1563,313.7188 55.3594,314.0469 Q54.3125,314.5 53.0313,314.5 Q51.5313,314.5 50.3281,313.9063 Q49.3594,313.4375 48.6719,312.4219 Q48,311.4063 48,310.2031 L48,309.1094 Q48,307.8594 48.5938,306.7656 Q49.2031,305.6719 50.25,305.0938 Q51.3125,304.5 52.5,304.5 Q53.2188,304.5 53.8438,304.75 Q54.4688,305 55,305.5 Z "/><text fill="#000000" font-family="sans-serif" font-size="12" lengthAdjust="spacingAndGlyphs" textLength="222" x="67" y="313.9102">RequestTransmitterCardAccessNumber</text><line style="stroke: #A80036; stroke-width: 1.5;" x1="39" x2="291" y1="325" y2="325"/><line style="stroke: #A80036; stroke-width: 1.5;" x1="39" x2="291" y1="333" y2="333"/><ellipse cx="49" cy="345.418" fill="#84BE84" rx="3" ry="3" style="stroke: #038048; stroke-width: 1.0;"/><text fill="#000000" font-family="sans-serif" font-size="11" lengthAdjust="spacingAndGlyphs" textLength="45" x="58" y="348.4189">request()</text><ellipse cx="49" cy="359.2539" fill="#84BE84" rx="3" ry="3" style="stroke: #038048; stroke-width: 1.0;"/><text fill="#000000" font-family="sans-serif" font-size="11" lengthAdjust="spacingAndGlyphs" textLength="45" x="58" y="362.2549">request()</text><polygon fill="#4177AF" points="49,369.0898,45,375.0898,53,375.0898" style="stroke: #1963A0; stroke-width: 1.0;"/><text fill="#000000" font-family="sans-serif" font-size="11" lengthAdjust="spacingAndGlyphs" textLength="200" x="58" y="376.0908">RequestTransmitterCardAccessNumber()</text><!--class de.gematik.ti.openhealthcard.events.control.RequestTransmitterPaceKey--><rect fill="#FEFECE" filter="url(#f1j3s4jtws2x7n)" height="89.5078" id="de.gematik.ti.openhealthcard.events.control.RequestTransmitterPaceKey" style="stroke: #A80036; stroke-width: 1.5;" width="190" x="327" y="293"/><ellipse cx="342" cy="309" fill="#ADD1B2" rx="11" ry="11" style="stroke: #A80036; stroke-width: 1.0;"/><path d="M344,305.5 Q344.2031,305 344.4375,304.75 Q344.6719,304.5 344.9375,304.5 Q345.4063,304.5 345.7031,304.7813 Q346,305.0625 346,305.7188 L346,307.2813 Q346,307.9375 345.7188,308.2188 Q345.4375,308.5 345,308.5 Q344.6094,308.5 344.3594,308.3281 Q344.1094,308.1563 344,307.7031 Q343.9531,307.3906 343.7813,307.2188 Q343.4688,306.8906 342.9063,306.7031 Q342.3438,306.5 341.7813,306.5 Q341.0781,306.5 340.4844,306.7813 Q339.9063,307.0625 339.4531,307.6875 Q339,308.3125 339,309.1719 L339,310.0938 Q339,311.125 339.8438,311.8125 Q340.6875,312.5 342.1875,312.5 Q343.0781,312.5 343.7031,312.2969 Q344.0625,312.1875 344.4688,311.8281 Q344.7344,311.625 344.875,311.5625 Q345.0156,311.5 345.1875,311.5 Q345.5156,311.5 345.75,311.7656 Q346,312.0156 346,312.375 Q346,312.7188 345.6563,313.125 Q345.1563,313.7188 344.3594,314.0469 Q343.3125,314.5 342.0313,314.5 Q340.5313,314.5 339.3281,313.9063 Q338.3594,313.4375 337.6719,312.4219 Q337,311.4063 337,310.2031 L337,309.1094 Q337,307.8594 337.5938,306.7656 Q338.2031,305.6719 339.25,305.0938 Q340.3125,304.5 341.5,304.5 Q342.2188,304.5 342.8438,304.75 Q343.4688,305 344,305.5 Z "/><text fill="#000000" font-family="sans-serif" font-size="12" lengthAdjust="spacingAndGlyphs" textLength="158" x="356" y="313.9102">RequestTransmitterPaceKey</text><line style="stroke: #A80036; stroke-width: 1.5;" x1="328" x2="516" y1="325" y2="325"/><line style="stroke: #A80036; stroke-width: 1.5;" x1="328" x2="516" y1="333" y2="333"/><ellipse cx="338" cy="345.418" fill="#84BE84" rx="3" ry="3" style="stroke: #038048; stroke-width: 1.0;"/><text fill="#000000" font-family="sans-serif" font-size="11" lengthAdjust="spacingAndGlyphs" textLength="45" x="347" y="348.4189">request()</text><ellipse cx="338" cy="359.2539" fill="#84BE84" rx="3" ry="3" style="stroke: #038048; stroke-width: 1.0;"/><text fill="#000000" font-family="sans-serif" font-size="11" lengthAdjust="spacingAndGlyphs" textLength="45" x="347" y="362.2549">request()</text><polygon fill="#4177AF" points="338,369.0898,334,375.0898,342,375.0898" style="stroke: #1963A0; stroke-width: 1.0;"/><text fill="#000000" font-family="sans-serif" font-size="11" lengthAdjust="spacingAndGlyphs" textLength="145" x="347" y="376.0908">RequestTransmitterPaceKey()</text><!--class de.gematik.ti.openhealthcard.events.control.RequestTransmitterPinNumber--><rect fill="#FEFECE" filter="url(#f1j3s4jtws2x7n)" height="89.5078" id="de.gematik.ti.openhealthcard.events.control.RequestTransmitterPinNumber" style="stroke: #A80036; stroke-width: 1.5;" width="205" x="552.5" y="293"/><ellipse cx="567.5" cy="309" fill="#ADD1B2" rx="11" ry="11" style="stroke: #A80036; stroke-width: 1.0;"/><path d="M569.5,305.5 Q569.7031,305 569.9375,304.75 Q570.1719,304.5 570.4375,304.5 Q570.9063,304.5 571.2031,304.7813 Q571.5,305.0625 571.5,305.7188 L571.5,307.2813 Q571.5,307.9375 571.2188,308.2188 Q570.9375,308.5 570.5,308.5 Q570.1094,308.5 569.8594,308.3281 Q569.6094,308.1563 569.5,307.7031 Q569.4531,307.3906 569.2813,307.2188 Q568.9688,306.8906 568.4063,306.7031 Q567.8438,306.5 567.2813,306.5 Q566.5781,306.5 565.9844,306.7813 Q565.4063,307.0625 564.9531,307.6875 Q564.5,308.3125 564.5,309.1719 L564.5,310.0938 Q564.5,311.125 565.3438,311.8125 Q566.1875,312.5 567.6875,312.5 Q568.5781,312.5 569.2031,312.2969 Q569.5625,312.1875 569.9688,311.8281 Q570.2344,311.625 570.375,311.5625 Q570.5156,311.5 570.6875,311.5 Q571.0156,311.5 571.25,311.7656 Q571.5,312.0156 571.5,312.375 Q571.5,312.7188 571.1563,313.125 Q570.6563,313.7188 569.8594,314.0469 Q568.8125,314.5 567.5313,314.5 Q566.0313,314.5 564.8281,313.9063 Q563.8594,313.4375 563.1719,312.4219 Q562.5,311.4063 562.5,310.2031 L562.5,309.1094 Q562.5,307.8594 563.0938,306.7656 Q563.7031,305.6719 564.75,305.0938 Q565.8125,304.5 567,304.5 Q567.7188,304.5 568.3438,304.75 Q568.9688,305 569.5,305.5 Z "/><text fill="#000000" font-family="sans-serif" font-size="12" lengthAdjust="spacingAndGlyphs" textLength="173" x="581.5" y="313.9102">RequestTransmitterPinNumber</text><line style="stroke: #A80036; stroke-width: 1.5;" x1="553.5" x2="756.5" y1="325" y2="325"/><line style="stroke: #A80036; stroke-width: 1.5;" x1="553.5" x2="756.5" y1="333" y2="333"/><ellipse cx="563.5" cy="345.418" fill="#84BE84" rx="3" ry="3" style="stroke: #038048; stroke-width: 1.0;"/><text fill="#000000" font-family="sans-serif" font-size="11" lengthAdjust="spacingAndGlyphs" textLength="153" x="572.5" y="348.4189">RequestTransmitterPinNumber()</text><ellipse cx="563.5" cy="359.2539" fill="#84BE84" rx="3" ry="3" style="stroke: #038048; stroke-width: 1.0;"/><text fill="#000000" font-family="sans-serif" font-size="11" lengthAdjust="spacingAndGlyphs" textLength="45" x="572.5" y="362.2549">request()</text><ellipse cx="563.5" cy="373.0898" fill="#84BE84" rx="3" ry="3" style="stroke: #038048; stroke-width: 1.0;"/><text fill="#000000" font-family="sans-serif" font-size="11" lengthAdjust="spacingAndGlyphs" textLength="45" x="572.5" y="376.0908">request()</text><!--link de.gematik.ti.openhealthcard.events.control.CommonEventTransmitter to de.gematik.ti.openhealthcard.events.control.PinType--><!--link de.gematik.ti.openhealthcard.events.control.PinType to de.gematik.ti.openhealthcard.events.control.RequestTransmitter--><!--link de.gematik.ti.openhealthcard.events.control.CommonEventTransmitter to de.gematik.ti.openhealthcard.events.control.RequestTransmitterCardAccessNumber--><!--link de.gematik.ti.openhealthcard.events.control.RequestTransmitterCardAccessNumber to de.gematik.ti.openhealthcard.events.control.RequestTransmitterPaceKey--><!--link de.gematik.ti.openhealthcard.events.control.RequestTransmitterPaceKey to de.gematik.ti.openhealthcard.events.control.RequestTransmitterPinNumber--><!--
@startuml



  namespace de.gematik.ti.openhealthcard.events.control {
    class de.gematik.ti.openhealthcard.events.control.CommonEventTransmitter {
        {static} - packageFilter : String
        {static} + postError()
        {static} + postError()
        {static} + postInfo()
        {static} + postWarn()
        {static} + setPackageFilter()
        - CommonEventTransmitter()
        {static} - checkStackTraceElement()
        {static} - findClassName()
    }
  }


  namespace de.gematik.ti.openhealthcard.events.control {
    enum PinType {
      MRPIN_AMTS
      MRPIN_DPE
      MRPIN_DPE_READ
      MRPIN_GDD
      MRPIN_NFD
      MRPIN_NFD_READ
      MRPIN_OSE
      PIN_CH
    }
  }


  namespace de.gematik.ti.openhealthcard.events.control {
    class de.gematik.ti.openhealthcard.events.control.RequestTransmitter {
        + cardAccessNumber()
        + paceKey()
        + pinNumber()
        + requestCardAccessNumber()
        + requestPaceKey()
    }
  }


  namespace de.gematik.ti.openhealthcard.events.control {
    class de.gematik.ti.openhealthcard.events.control.RequestTransmitterCardAccessNumber {
        + request()
        + request()
        ~ RequestTransmitterCardAccessNumber()
    }
  }


  namespace de.gematik.ti.openhealthcard.events.control {
    class de.gematik.ti.openhealthcard.events.control.RequestTransmitterPaceKey {
        + request()
        + request()
        ~ RequestTransmitterPaceKey()
    }
  }


  namespace de.gematik.ti.openhealthcard.events.control {
    class de.gematik.ti.openhealthcard.events.control.RequestTransmitterPinNumber {
        + RequestTransmitterPinNumber()
        + request()
        + request()
    }
  }











@enduml

PlantUML version 1.2019.06(Fri May 24 19:10:25 CEST 2019)
(APACHE source distribution)
Java Runtime: OpenJDK Runtime Environment
JVM: OpenJDK 64-Bit Server VM
Java Version: 11.0.4+10-b304.69
Operating System: Windows 7
OS Version: 6.1
Default Encoding: Cp1252
Language: de
Country: DE
--></g></svg>