<?xml version="1.0" encoding="UTF-8" standalone="no"?><svg xmlns="http://www.w3.org/2000/svg" xmlns:xlink="http://www.w3.org/1999/xlink" contentScriptType="application/ecmascript" contentStyleType="text/css" height="466px" preserveAspectRatio="none" style="width:456px;height:466px;" version="1.1" viewBox="0 0 456 466" width="456px" zoomAndPan="magnify"><defs><filter height="300%" id="fy18dvk1pt9r9" width="300%" x="-1" y="-1"><feGaussianBlur result="blurOut" stdDeviation="2.0"/><feColorMatrix in="blurOut" result="blurOut2" type="matrix" values="0 0 0 0 0 0 0 0 0 0 0 0 0 0 0 0 0 0 .4 0"/><feOffset dx="4.0" dy="4.0" in="blurOut2" result="blurOut3"/><feBlend in="SourceGraphic" in2="blurOut3" mode="normal"/></filter></defs><g><!--cluster de.gematik.ti.openhealthcard.events.message--><polygon fill="#FFFFFF" filter="url(#fy18dvk1pt9r9)" points="22,24,353,24,360,47.6094,434,47.6094,434,454,22,454,22,24" style="stroke: #000000; stroke-width: 1.5;"/><line style="stroke: #000000; stroke-width: 1.5;" x1="22" x2="360" y1="47.6094" y2="47.6094"/><text fill="#000000" font-family="sans-serif" font-size="14" font-weight="bold" lengthAdjust="spacingAndGlyphs" textLength="325" x="26" y="40.5332">de.gematik.ti.openhealthcard.events.message</text><!--class de.gematik.ti.openhealthcard.events.message.AbstractOpenHealthCardEvent--><rect fill="#FEFECE" filter="url(#fy18dvk1pt9r9)" height="144.8516" id="de.gematik.ti.openhealthcard.events.message.AbstractOpenHealthCardEvent" style="stroke: #A80036; stroke-width: 1.5;" width="201" x="149.5" y="60"/><ellipse cx="164.5" cy="76" fill="#A9DCDF" rx="11" ry="11" style="stroke: #A80036; stroke-width: 1.0;"/><path d="M166.25,77.5 L162.9531,77.5 L162.5156,78.5 L162.5156,78.5 L162.9844,78.5 L163.5,79.125 L163.5,79.5 L163.5,79.875 L162.9844,80.5 L162.5156,80.5 L160.625,80.5 L160.0156,80.5 L159.5,79.875 L159.5,79.5 L159.5,79.125 L160.0156,78.5 L160.625,78.5 L162.9375,72.5 L162.0625,72.5 L161.0156,72.5 L160.5,71.875 L160.5,71.5 L160.5,71.125 L161.0156,70.5 L162.0625,70.5 L165.7344,70.5 L168.4219,78.5 L168.9844,78.5 L168.9844,78.5 L169.5,79.125 L169.5,79.5 L169.5,79.875 L168.9844,80.5 L168.4219,80.5 L166.5313,80.5 L166.0156,80.5 L165.5,79.875 L165.5,79.5 L165.5,79.125 L166.0156,78.5 L166.5313,78.5 L166.5313,78.5 L166.25,77.5 Z M165.7031,75.5 L164.5,71.9219 L163.4688,75.5 L165.7031,75.5 Z "/><text fill="#000000" font-family="sans-serif" font-size="12" font-style="italic" lengthAdjust="spacingAndGlyphs" textLength="169" x="178.5" y="80.9102">AbstractOpenHealthCardEvent</text><line style="stroke: #A80036; stroke-width: 1.5;" x1="150.5" x2="349.5" y1="92" y2="92"/><rect fill="none" height="6" style="stroke: #C82930; stroke-width: 1.0;" width="6" x="157.5" y="101.418"/><text fill="#000000" font-family="sans-serif" font-size="11" lengthAdjust="spacingAndGlyphs" textLength="81" x="169.5" y="107.4189">message : String</text><rect fill="none" height="6" style="stroke: #C82930; stroke-width: 1.0;" width="6" x="157.5" y="115.2539"/><text fill="#000000" font-family="sans-serif" font-size="11" lengthAdjust="spacingAndGlyphs" textLength="98" x="169.5" y="121.2549">sourceClass : String</text><line style="stroke: #A80036; stroke-width: 1.5;" x1="150.5" x2="349.5" y1="127.6719" y2="127.6719"/><ellipse cx="160.5" cy="140.0898" fill="#84BE84" rx="3" ry="3" style="stroke: #038048; stroke-width: 1.0;"/><text fill="#000000" font-family="sans-serif" font-size="11" lengthAdjust="spacingAndGlyphs" textLength="156" x="169.5" y="143.0908">AbstractOpenHealthCardEvent()</text><ellipse cx="160.5" cy="153.9258" fill="#84BE84" rx="3" ry="3" style="stroke: #038048; stroke-width: 1.0;"/><text fill="#000000" font-family="sans-serif" font-size="11" lengthAdjust="spacingAndGlyphs" textLength="156" x="169.5" y="156.9268">AbstractOpenHealthCardEvent()</text><ellipse cx="160.5" cy="167.7617" fill="#84BE84" rx="3" ry="3" style="stroke: #038048; stroke-width: 1.0;"/><text fill="#000000" font-family="sans-serif" font-size="11" lengthAdjust="spacingAndGlyphs" textLength="67" x="169.5" y="170.7627">getMessage()</text><ellipse cx="160.5" cy="181.5977" fill="#84BE84" rx="3" ry="3" style="stroke: #038048; stroke-width: 1.0;"/><text fill="#000000" font-family="sans-serif" font-size="11" lengthAdjust="spacingAndGlyphs" textLength="85" x="169.5" y="184.5986">getSourceClass()</text><ellipse cx="160.5" cy="195.4336" fill="#84BE84" rx="3" ry="3" style="stroke: #038048; stroke-width: 1.0;"/><text fill="#000000" font-family="sans-serif" font-size="11" lengthAdjust="spacingAndGlyphs" textLength="45" x="169.5" y="198.4346">toString()</text><!--class de.gematik.ti.openhealthcard.events.message.ErrorEvent--><rect fill="#FEFECE" filter="url(#fy18dvk1pt9r9)" height="172.5234" id="de.gematik.ti.openhealthcard.events.message.ErrorEvent" style="stroke: #A80036; stroke-width: 1.5;" width="136" x="38" y="265"/><ellipse cx="74.15" cy="281" fill="#ADD1B2" rx="11" ry="11" style="stroke: #A80036; stroke-width: 1.0;"/><path d="M76.15,277.5 Q76.3531,277 76.5875,276.75 Q76.8219,276.5 77.0875,276.5 Q77.5563,276.5 77.8531,276.7813 Q78.15,277.0625 78.15,277.7188 L78.15,279.2813 Q78.15,279.9375 77.8688,280.2188 Q77.5875,280.5 77.15,280.5 Q76.7594,280.5 76.5094,280.3281 Q76.2594,280.1563 76.15,279.7031 Q76.1031,279.3906 75.9313,279.2188 Q75.6188,278.8906 75.0563,278.7031 Q74.4938,278.5 73.9313,278.5 Q73.2281,278.5 72.6344,278.7813 Q72.0563,279.0625 71.6031,279.6875 Q71.15,280.3125 71.15,281.1719 L71.15,282.0938 Q71.15,283.125 71.9938,283.8125 Q72.8375,284.5 74.3375,284.5 Q75.2281,284.5 75.8531,284.2969 Q76.2125,284.1875 76.6188,283.8281 Q76.8844,283.625 77.025,283.5625 Q77.1656,283.5 77.3375,283.5 Q77.6656,283.5 77.9,283.7656 Q78.15,284.0156 78.15,284.375 Q78.15,284.7188 77.8063,285.125 Q77.3063,285.7188 76.5094,286.0469 Q75.4625,286.5 74.1813,286.5 Q72.6813,286.5 71.4781,285.9063 Q70.5094,285.4375 69.8219,284.4219 Q69.15,283.4063 69.15,282.2031 L69.15,281.1094 Q69.15,279.8594 69.7438,278.7656 Q70.3531,277.6719 71.4,277.0938 Q72.4625,276.5 73.65,276.5 Q74.3688,276.5 74.9938,276.75 Q75.6188,277 76.15,277.5 Z "/><text fill="#000000" font-family="sans-serif" font-size="12" lengthAdjust="spacingAndGlyphs" textLength="57" x="92.85" y="285.9102">ErrorEvent</text><line style="stroke: #A80036; stroke-width: 1.5;" x1="39" x2="173" y1="297" y2="297"/><rect fill="none" height="6" style="stroke: #C82930; stroke-width: 1.0;" width="6" x="46" y="306.418"/><text fill="#000000" font-family="sans-serif" font-size="11" lengthAdjust="spacingAndGlyphs" textLength="110" x="58" y="312.4189">throwable : Throwable</text><line style="stroke: #A80036; stroke-width: 1.5;" x1="39" x2="173" y1="318.8359" y2="318.8359"/><ellipse cx="49" cy="331.2539" fill="#84BE84" rx="3" ry="3" style="stroke: #038048; stroke-width: 1.0;"/><text fill="#000000" font-family="sans-serif" font-size="11" lengthAdjust="spacingAndGlyphs" textLength="59" x="58" y="334.2549">ErrorEvent()</text><ellipse cx="49" cy="345.0898" fill="#84BE84" rx="3" ry="3" style="stroke: #038048; stroke-width: 1.0;"/><text fill="#000000" font-family="sans-serif" font-size="11" lengthAdjust="spacingAndGlyphs" textLength="59" x="58" y="348.0908">ErrorEvent()</text><ellipse cx="49" cy="358.9258" fill="#84BE84" rx="3" ry="3" style="stroke: #038048; stroke-width: 1.0;"/><text fill="#000000" font-family="sans-serif" font-size="11" lengthAdjust="spacingAndGlyphs" textLength="59" x="58" y="361.9268">ErrorEvent()</text><ellipse cx="49" cy="372.7617" fill="#84BE84" rx="3" ry="3" style="stroke: #038048; stroke-width: 1.0;"/><text fill="#000000" font-family="sans-serif" font-size="11" lengthAdjust="spacingAndGlyphs" textLength="59" x="58" y="375.7627">ErrorEvent()</text><ellipse cx="49" cy="386.5977" fill="#84BE84" rx="3" ry="3" style="stroke: #038048; stroke-width: 1.0;"/><text fill="#000000" font-family="sans-serif" font-size="11" lengthAdjust="spacingAndGlyphs" textLength="59" x="58" y="389.5986">ErrorEvent()</text><ellipse cx="49" cy="400.4336" fill="#84BE84" rx="3" ry="3" style="stroke: #038048; stroke-width: 1.0;"/><text fill="#000000" font-family="sans-serif" font-size="11" lengthAdjust="spacingAndGlyphs" textLength="59" x="58" y="403.4346">ErrorEvent()</text><ellipse cx="49" cy="414.2695" fill="#84BE84" rx="3" ry="3" style="stroke: #038048; stroke-width: 1.0;"/><text fill="#000000" font-family="sans-serif" font-size="11" lengthAdjust="spacingAndGlyphs" textLength="75" x="58" y="417.2705">getThrowable()</text><ellipse cx="49" cy="428.1055" fill="#84BE84" rx="3" ry="3" style="stroke: #038048; stroke-width: 1.0;"/><text fill="#000000" font-family="sans-serif" font-size="11" lengthAdjust="spacingAndGlyphs" textLength="45" x="58" y="431.1064">toString()</text><!--class de.gematik.ti.openhealthcard.events.message.InfoEvent--><rect fill="#FEFECE" filter="url(#fy18dvk1pt9r9)" height="89.5078" id="de.gematik.ti.openhealthcard.events.message.InfoEvent" style="stroke: #A80036; stroke-width: 1.5;" width="82" x="209" y="306.5"/><ellipse cx="224" cy="322.5" fill="#ADD1B2" rx="11" ry="11" style="stroke: #A80036; stroke-width: 1.0;"/><path d="M226,319 Q226.2031,318.5 226.4375,318.25 Q226.6719,318 226.9375,318 Q227.4063,318 227.7031,318.2813 Q228,318.5625 228,319.2188 L228,320.7813 Q228,321.4375 227.7188,321.7188 Q227.4375,322 227,322 Q226.6094,322 226.3594,321.8281 Q226.1094,321.6563 226,321.2031 Q225.9531,320.8906 225.7813,320.7188 Q225.4688,320.3906 224.9063,320.2031 Q224.3438,320 223.7813,320 Q223.0781,320 222.4844,320.2813 Q221.9063,320.5625 221.4531,321.1875 Q221,321.8125 221,322.6719 L221,323.5938 Q221,324.625 221.8438,325.3125 Q222.6875,326 224.1875,326 Q225.0781,326 225.7031,325.7969 Q226.0625,325.6875 226.4688,325.3281 Q226.7344,325.125 226.875,325.0625 Q227.0156,325 227.1875,325 Q227.5156,325 227.75,325.2656 Q228,325.5156 228,325.875 Q228,326.2188 227.6563,326.625 Q227.1563,327.2188 226.3594,327.5469 Q225.3125,328 224.0313,328 Q222.5313,328 221.3281,327.4063 Q220.3594,326.9375 219.6719,325.9219 Q219,324.9063 219,323.7031 L219,322.6094 Q219,321.3594 219.5938,320.2656 Q220.2031,319.1719 221.25,318.5938 Q222.3125,318 223.5,318 Q224.2188,318 224.8438,318.25 Q225.4688,318.5 226,319 Z "/><text fill="#000000" font-family="sans-serif" font-size="12" lengthAdjust="spacingAndGlyphs" textLength="50" x="238" y="327.4102">InfoEvent</text><line style="stroke: #A80036; stroke-width: 1.5;" x1="210" x2="290" y1="338.5" y2="338.5"/><line style="stroke: #A80036; stroke-width: 1.5;" x1="210" x2="290" y1="346.5" y2="346.5"/><ellipse cx="220" cy="358.918" fill="#84BE84" rx="3" ry="3" style="stroke: #038048; stroke-width: 1.0;"/><text fill="#000000" font-family="sans-serif" font-size="11" lengthAdjust="spacingAndGlyphs" textLength="53" x="229" y="361.9189">InfoEvent()</text><ellipse cx="220" cy="372.7539" fill="#84BE84" rx="3" ry="3" style="stroke: #038048; stroke-width: 1.0;"/><text fill="#000000" font-family="sans-serif" font-size="11" lengthAdjust="spacingAndGlyphs" textLength="53" x="229" y="375.7549">InfoEvent()</text><ellipse cx="220" cy="386.5898" fill="#84BE84" rx="3" ry="3" style="stroke: #038048; stroke-width: 1.0;"/><text fill="#000000" font-family="sans-serif" font-size="11" lengthAdjust="spacingAndGlyphs" textLength="45" x="229" y="389.5908">toString()</text><!--class de.gematik.ti.openhealthcard.events.message.WarnEvent--><rect fill="#FEFECE" filter="url(#fy18dvk1pt9r9)" height="89.5078" id="de.gematik.ti.openhealthcard.events.message.WarnEvent" style="stroke: #A80036; stroke-width: 1.5;" width="91" x="326.5" y="306.5"/><ellipse cx="341.5" cy="322.5" fill="#ADD1B2" rx="11" ry="11" style="stroke: #A80036; stroke-width: 1.0;"/><path d="M343.5,319 Q343.7031,318.5 343.9375,318.25 Q344.1719,318 344.4375,318 Q344.9063,318 345.2031,318.2813 Q345.5,318.5625 345.5,319.2188 L345.5,320.7813 Q345.5,321.4375 345.2188,321.7188 Q344.9375,322 344.5,322 Q344.1094,322 343.8594,321.8281 Q343.6094,321.6563 343.5,321.2031 Q343.4531,320.8906 343.2813,320.7188 Q342.9688,320.3906 342.4063,320.2031 Q341.8438,320 341.2813,320 Q340.5781,320 339.9844,320.2813 Q339.4063,320.5625 338.9531,321.1875 Q338.5,321.8125 338.5,322.6719 L338.5,323.5938 Q338.5,324.625 339.3438,325.3125 Q340.1875,326 341.6875,326 Q342.5781,326 343.2031,325.7969 Q343.5625,325.6875 343.9688,325.3281 Q344.2344,325.125 344.375,325.0625 Q344.5156,325 344.6875,325 Q345.0156,325 345.25,325.2656 Q345.5,325.5156 345.5,325.875 Q345.5,326.2188 345.1563,326.625 Q344.6563,327.2188 343.8594,327.5469 Q342.8125,328 341.5313,328 Q340.0313,328 338.8281,327.4063 Q337.8594,326.9375 337.1719,325.9219 Q336.5,324.9063 336.5,323.7031 L336.5,322.6094 Q336.5,321.3594 337.0938,320.2656 Q337.7031,319.1719 338.75,318.5938 Q339.8125,318 341,318 Q341.7188,318 342.3438,318.25 Q342.9688,318.5 343.5,319 Z "/><text fill="#000000" font-family="sans-serif" font-size="12" lengthAdjust="spacingAndGlyphs" textLength="59" x="355.5" y="327.4102">WarnEvent</text><line style="stroke: #A80036; stroke-width: 1.5;" x1="327.5" x2="416.5" y1="338.5" y2="338.5"/><line style="stroke: #A80036; stroke-width: 1.5;" x1="327.5" x2="416.5" y1="346.5" y2="346.5"/><ellipse cx="337.5" cy="358.918" fill="#84BE84" rx="3" ry="3" style="stroke: #038048; stroke-width: 1.0;"/><text fill="#000000" font-family="sans-serif" font-size="11" lengthAdjust="spacingAndGlyphs" textLength="61" x="346.5" y="361.9189">WarnEvent()</text><ellipse cx="337.5" cy="372.7539" fill="#84BE84" rx="3" ry="3" style="stroke: #038048; stroke-width: 1.0;"/><text fill="#000000" font-family="sans-serif" font-size="11" lengthAdjust="spacingAndGlyphs" textLength="61" x="346.5" y="375.7549">WarnEvent()</text><ellipse cx="337.5" cy="386.5898" fill="#84BE84" rx="3" ry="3" style="stroke: #038048; stroke-width: 1.0;"/><text fill="#000000" font-family="sans-serif" font-size="11" lengthAdjust="spacingAndGlyphs" textLength="45" x="346.5" y="389.5908">toString()</text><!--link de.gematik.ti.openhealthcard.events.message.AbstractOpenHealthCardEvent to de.gematik.ti.openhealthcard.events.message.ErrorEvent--><path d="M191.195,222.116 C181.805,236.266 172.105,250.884 162.763,264.961 " fill="none" id="de.gematik.ti.openhealthcard.events.message.AbstractOpenHealthCardEvent-de.gematik.ti.openhealthcard.events.message.ErrorEvent" style="stroke: #A80036; stroke-width: 1.0;"/><polygon fill="none" points="185.559,217.949,202.45,205.155,197.224,225.69,185.559,217.949" style="stroke: #A80036; stroke-width: 1.0;"/><!--link de.gematik.ti.openhealthcard.events.message.AbstractOpenHealthCardEvent to de.gematik.ti.openhealthcard.events.message.InfoEvent--><path d="M250,225.253 C250,253.381 250,283.048 250,306.445 " fill="none" id="de.gematik.ti.openhealthcard.events.message.AbstractOpenHealthCardEvent-de.gematik.ti.openhealthcard.events.message.InfoEvent" style="stroke: #A80036; stroke-width: 1.0;"/><polygon fill="none" points="243,225.155,250,205.155,257,225.155,243,225.155" style="stroke: #A80036; stroke-width: 1.0;"/><!--link de.gematik.ti.openhealthcard.events.message.AbstractOpenHealthCardEvent to de.gematik.ti.openhealthcard.events.message.WarnEvent--><path d="M300.205,222.8 C316.424,251.648 333.695,282.367 347.232,306.445 " fill="none" id="de.gematik.ti.openhealthcard.events.message.AbstractOpenHealthCardEvent-de.gematik.ti.openhealthcard.events.message.WarnEvent" style="stroke: #A80036; stroke-width: 1.0;"/><polygon fill="none" points="293.985,226.019,290.285,205.155,306.189,219.158,293.985,226.019" style="stroke: #A80036; stroke-width: 1.0;"/><!--
@startuml



  namespace de.gematik.ti.openhealthcard.events.message {
    abstract class de.gematik.ti.openhealthcard.events.message.AbstractOpenHealthCardEvent {
        - message : String
        - sourceClass : String
        + AbstractOpenHealthCardEvent()
        + AbstractOpenHealthCardEvent()
        + getMessage()
        + getSourceClass()
        + toString()
    }
  }


  namespace de.gematik.ti.openhealthcard.events.message {
    class de.gematik.ti.openhealthcard.events.message.ErrorEvent {
        - throwable : Throwable
        + ErrorEvent()
        + ErrorEvent()
        + ErrorEvent()
        + ErrorEvent()
        + ErrorEvent()
        + ErrorEvent()
        + getThrowable()
        + toString()
    }
  }


  namespace de.gematik.ti.openhealthcard.events.message {
    class de.gematik.ti.openhealthcard.events.message.InfoEvent {
        + InfoEvent()
        + InfoEvent()
        + toString()
    }
  }


  namespace de.gematik.ti.openhealthcard.events.message {
    class de.gematik.ti.openhealthcard.events.message.WarnEvent {
        + WarnEvent()
        + WarnEvent()
        + toString()
    }
  }


  de.gematik.ti.openhealthcard.events.message.ErrorEvent -up-|> de.gematik.ti.openhealthcard.events.message.AbstractOpenHealthCardEvent
  de.gematik.ti.openhealthcard.events.message.InfoEvent -up-|> de.gematik.ti.openhealthcard.events.message.AbstractOpenHealthCardEvent
  de.gematik.ti.openhealthcard.events.message.WarnEvent -up-|> de.gematik.ti.openhealthcard.events.message.AbstractOpenHealthCardEvent









@enduml

PlantUML version 1.2019.06(Fri May 24 19:10:25 CEST 2019)
(APACHE source distribution)
Java Runtime: OpenJDK Runtime Environment
JVM: OpenJDK 64-Bit Server VM
Java Version: 11.0.4+10-b304.69
Operating System: Windows 7
OS Version: 6.1
Default Encoding: Cp1252
Language: de
Country: DE
--></g></svg>