<?xml version="1.0" encoding="UTF-8" standalone="no"?><svg xmlns="http://www.w3.org/2000/svg" xmlns:xlink="http://www.w3.org/1999/xlink" contentScriptType="application/ecmascript" contentStyleType="text/css" height="550px" preserveAspectRatio="none" style="width:1135px;height:550px;" version="1.1" viewBox="0 0 1135 550" width="1135px" zoomAndPan="magnify"><defs><filter height="300%" id="f3rxn3897fk6g" width="300%" x="-1" y="-1"><feGaussianBlur result="blurOut" stdDeviation="2.0"/><feColorMatrix in="blurOut" result="blurOut2" type="matrix" values="0 0 0 0 0 0 0 0 0 0 0 0 0 0 0 0 0 0 .4 0"/><feOffset dx="4.0" dy="4.0" in="blurOut2" result="blurOut3"/><feBlend in="SourceGraphic" in2="blurOut3" mode="normal"/></filter></defs><g><!--cluster de.gematik.ti.openhealthcard.events.request--><polygon fill="#FFFFFF" filter="url(#f3rxn3897fk6g)" points="22,24,345,24,352,47.6094,675,47.6094,675,388,22,388,22,24" style="stroke: #000000; stroke-width: 1.5;"/><line style="stroke: #000000; stroke-width: 1.5;" x1="22" x2="352" y1="47.6094" y2="47.6094"/><text fill="#000000" font-family="sans-serif" font-size="14" font-weight="bold" lengthAdjust="spacingAndGlyphs" textLength="317" x="26" y="40.5332">de.gematik.ti.openhealthcard.events.request</text><!--cluster de.gematik.ti.openhealthcard.events.response.callbacks--><polygon fill="#FFFFFF" filter="url(#f3rxn3897fk6g)" points="699,253.5,1103,253.5,1110,277.1094,1113,277.1094,1113,353.5,699,353.5,699,253.5" style="stroke: #000000; stroke-width: 1.5;"/><line style="stroke: #000000; stroke-width: 1.5;" x1="699" x2="1110" y1="277.1094" y2="277.1094"/><text fill="#000000" font-family="sans-serif" font-size="14" font-weight="bold" lengthAdjust="spacingAndGlyphs" textLength="398" x="703" y="270.0332">de.gematik.ti.openhealthcard.events.response.callbacks</text><!--cluster de.gematik.ti.openhealthcard.events.control--><polygon fill="#FFFFFF" filter="url(#f3rxn3897fk6g)" points="409,438,727,438,734,461.6094,737,461.6094,737,538,409,538,409,438" style="stroke: #000000; stroke-width: 1.5;"/><line style="stroke: #000000; stroke-width: 1.5;" x1="409" x2="734" y1="461.6094" y2="461.6094"/><text fill="#000000" font-family="sans-serif" font-size="14" font-weight="bold" lengthAdjust="spacingAndGlyphs" textLength="312" x="413" y="454.5332">de.gematik.ti.openhealthcard.events.control</text><!--class de.gematik.ti.openhealthcard.events.request.AbstractRequestEvent--><rect fill="#FEFECE" filter="url(#f3rxn3897fk6g)" height="117.1797" id="de.gematik.ti.openhealthcard.events.request.AbstractRequestEvent" style="stroke: #A80036; stroke-width: 1.5;" width="182" x="382" y="60"/><ellipse cx="409.6" cy="76" fill="#A9DCDF" rx="11" ry="11" style="stroke: #A80036; stroke-width: 1.0;"/><path d="M411.35,77.5 L408.0531,77.5 L407.6156,78.5 L407.6156,78.5 L408.0844,78.5 L408.6,79.125 L408.6,79.5 L408.6,79.875 L408.0844,80.5 L407.6156,80.5 L405.725,80.5 L405.1156,80.5 L404.6,79.875 L404.6,79.5 L404.6,79.125 L405.1156,78.5 L405.725,78.5 L408.0375,72.5 L407.1625,72.5 L406.1156,72.5 L405.6,71.875 L405.6,71.5 L405.6,71.125 L406.1156,70.5 L407.1625,70.5 L410.8344,70.5 L413.5219,78.5 L414.0844,78.5 L414.0844,78.5 L414.6,79.125 L414.6,79.5 L414.6,79.875 L414.0844,80.5 L413.5219,80.5 L411.6313,80.5 L411.1156,80.5 L410.6,79.875 L410.6,79.5 L410.6,79.125 L411.1156,78.5 L411.6313,78.5 L411.6313,78.5 L411.35,77.5 Z M410.8031,75.5 L409.6,71.9219 L408.5688,75.5 L410.8031,75.5 Z "/><text fill="#000000" font-family="sans-serif" font-size="12" font-style="italic" lengthAdjust="spacingAndGlyphs" textLength="122" x="426.4" y="80.9102">AbstractRequestEvent</text><line style="stroke: #A80036; stroke-width: 1.5;" x1="383" x2="563" y1="92" y2="92"/><rect fill="none" height="6" style="stroke: #C82930; stroke-width: 1.0;" width="6" x="390" y="101.418"/><text fill="#000000" font-family="sans-serif" font-size="11" lengthAdjust="spacingAndGlyphs" textLength="156" x="402" y="107.4189">errorMessage : Optional&lt;String&gt;</text><line style="stroke: #A80036; stroke-width: 1.5;" x1="383" x2="563" y1="113.8359" y2="113.8359"/><ellipse cx="393" cy="126.2539" fill="#84BE84" rx="3" ry="3" style="stroke: #038048; stroke-width: 1.0;"/><text fill="#000000" font-family="sans-serif" font-size="11" lengthAdjust="spacingAndGlyphs" textLength="91" x="402" y="129.2549">getErrorMessage()</text><ellipse cx="393" cy="140.0898" fill="#84BE84" rx="3" ry="3" style="stroke: #038048; stroke-width: 1.0;"/><text fill="#000000" font-family="sans-serif" font-size="11" lengthAdjust="spacingAndGlyphs" textLength="111" x="402" y="143.0908">getResponseListener()</text><polygon fill="#FFFF44" points="393,148.9258,397,152.9258,393,156.9258,389,152.9258" style="stroke: #B38D22; stroke-width: 1.0;"/><text fill="#000000" font-family="sans-serif" font-size="11" lengthAdjust="spacingAndGlyphs" textLength="117" x="402" y="156.9268">AbstractRequestEvent()</text><polygon fill="#4177AF" points="393,163.7617,389,169.7617,397,169.7617" style="stroke: #1963A0; stroke-width: 1.0;"/><text fill="#000000" font-family="sans-serif" font-size="11" lengthAdjust="spacingAndGlyphs" textLength="91" x="402" y="170.7627">setErrorMessage()</text><!--class de.gematik.ti.openhealthcard.events.request.RequestCardAccessNumberEvent--><rect fill="#FEFECE" filter="url(#f3rxn3897fk6g)" height="89.5078" id="de.gematik.ti.openhealthcard.events.request.RequestCardAccessNumberEvent" style="stroke: #A80036; stroke-width: 1.5;" width="221" x="38.5" y="268.5"/><ellipse cx="53.5" cy="284.5" fill="#ADD1B2" rx="11" ry="11" style="stroke: #A80036; stroke-width: 1.0;"/><path d="M55.5,281 Q55.7031,280.5 55.9375,280.25 Q56.1719,280 56.4375,280 Q56.9063,280 57.2031,280.2813 Q57.5,280.5625 57.5,281.2188 L57.5,282.7813 Q57.5,283.4375 57.2188,283.7188 Q56.9375,284 56.5,284 Q56.1094,284 55.8594,283.8281 Q55.6094,283.6563 55.5,283.2031 Q55.4531,282.8906 55.2813,282.7188 Q54.9688,282.3906 54.4063,282.2031 Q53.8438,282 53.2813,282 Q52.5781,282 51.9844,282.2813 Q51.4063,282.5625 50.9531,283.1875 Q50.5,283.8125 50.5,284.6719 L50.5,285.5938 Q50.5,286.625 51.3438,287.3125 Q52.1875,288 53.6875,288 Q54.5781,288 55.2031,287.7969 Q55.5625,287.6875 55.9688,287.3281 Q56.2344,287.125 56.375,287.0625 Q56.5156,287 56.6875,287 Q57.0156,287 57.25,287.2656 Q57.5,287.5156 57.5,287.875 Q57.5,288.2188 57.1563,288.625 Q56.6563,289.2188 55.8594,289.5469 Q54.8125,290 53.5313,290 Q52.0313,290 50.8281,289.4063 Q49.8594,288.9375 49.1719,287.9219 Q48.5,286.9063 48.5,285.7031 L48.5,284.6094 Q48.5,283.3594 49.0938,282.2656 Q49.7031,281.1719 50.75,280.5938 Q51.8125,280 53,280 Q53.7188,280 54.3438,280.25 Q54.9688,280.5 55.5,281 Z "/><text fill="#000000" font-family="sans-serif" font-size="12" lengthAdjust="spacingAndGlyphs" textLength="189" x="67.5" y="289.4102">RequestCardAccessNumberEvent</text><line style="stroke: #A80036; stroke-width: 1.5;" x1="39.5" x2="258.5" y1="300.5" y2="300.5"/><line style="stroke: #A80036; stroke-width: 1.5;" x1="39.5" x2="258.5" y1="308.5" y2="308.5"/><ellipse cx="49.5" cy="320.918" fill="#84BE84" rx="3" ry="3" style="stroke: #038048; stroke-width: 1.0;"/><text fill="#000000" font-family="sans-serif" font-size="11" lengthAdjust="spacingAndGlyphs" textLength="173" x="58.5" y="323.9189">RequestCardAccessNumberEvent()</text><ellipse cx="49.5" cy="334.7539" fill="#84BE84" rx="3" ry="3" style="stroke: #038048; stroke-width: 1.0;"/><text fill="#000000" font-family="sans-serif" font-size="11" lengthAdjust="spacingAndGlyphs" textLength="173" x="58.5" y="337.7549">RequestCardAccessNumberEvent()</text><ellipse cx="49.5" cy="348.5898" fill="#84BE84" rx="3" ry="3" style="stroke: #038048; stroke-width: 1.0;"/><text fill="#000000" font-family="sans-serif" font-size="11" lengthAdjust="spacingAndGlyphs" textLength="111" x="58.5" y="351.5908">getResponseListener()</text><!--class de.gematik.ti.openhealthcard.events.request.RequestPaceKeyEvent--><rect fill="#FEFECE" filter="url(#f3rxn3897fk6g)" height="117.1797" id="de.gematik.ti.openhealthcard.events.request.RequestPaceKeyEvent" style="stroke: #A80036; stroke-width: 1.5;" width="157" x="294.5" y="255"/><ellipse cx="309.5" cy="271" fill="#ADD1B2" rx="11" ry="11" style="stroke: #A80036; stroke-width: 1.0;"/><path d="M311.5,267.5 Q311.7031,267 311.9375,266.75 Q312.1719,266.5 312.4375,266.5 Q312.9063,266.5 313.2031,266.7813 Q313.5,267.0625 313.5,267.7188 L313.5,269.2813 Q313.5,269.9375 313.2188,270.2188 Q312.9375,270.5 312.5,270.5 Q312.1094,270.5 311.8594,270.3281 Q311.6094,270.1563 311.5,269.7031 Q311.4531,269.3906 311.2813,269.2188 Q310.9688,268.8906 310.4063,268.7031 Q309.8438,268.5 309.2813,268.5 Q308.5781,268.5 307.9844,268.7813 Q307.4063,269.0625 306.9531,269.6875 Q306.5,270.3125 306.5,271.1719 L306.5,272.0938 Q306.5,273.125 307.3438,273.8125 Q308.1875,274.5 309.6875,274.5 Q310.5781,274.5 311.2031,274.2969 Q311.5625,274.1875 311.9688,273.8281 Q312.2344,273.625 312.375,273.5625 Q312.5156,273.5 312.6875,273.5 Q313.0156,273.5 313.25,273.7656 Q313.5,274.0156 313.5,274.375 Q313.5,274.7188 313.1563,275.125 Q312.6563,275.7188 311.8594,276.0469 Q310.8125,276.5 309.5313,276.5 Q308.0313,276.5 306.8281,275.9063 Q305.8594,275.4375 305.1719,274.4219 Q304.5,273.4063 304.5,272.2031 L304.5,271.1094 Q304.5,269.8594 305.0938,268.7656 Q305.7031,267.6719 306.75,267.0938 Q307.8125,266.5 309,266.5 Q309.7188,266.5 310.3438,266.75 Q310.9688,267 311.5,267.5 Z "/><text fill="#000000" font-family="sans-serif" font-size="12" lengthAdjust="spacingAndGlyphs" textLength="125" x="323.5" y="275.9102">RequestPaceKeyEvent</text><line style="stroke: #A80036; stroke-width: 1.5;" x1="295.5" x2="450.5" y1="287" y2="287"/><rect fill="none" height="6" style="stroke: #C82930; stroke-width: 1.0;" width="6" x="302.5" y="296.418"/><text fill="#000000" font-family="sans-serif" font-size="11" lengthAdjust="spacingAndGlyphs" textLength="56" x="314.5" y="302.4189">card : ICard</text><line style="stroke: #A80036; stroke-width: 1.5;" x1="295.5" x2="450.5" y1="308.8359" y2="308.8359"/><ellipse cx="305.5" cy="321.2539" fill="#84BE84" rx="3" ry="3" style="stroke: #038048; stroke-width: 1.0;"/><text fill="#000000" font-family="sans-serif" font-size="11" lengthAdjust="spacingAndGlyphs" textLength="118" x="314.5" y="324.2549">RequestPaceKeyEvent()</text><ellipse cx="305.5" cy="335.0898" fill="#84BE84" rx="3" ry="3" style="stroke: #038048; stroke-width: 1.0;"/><text fill="#000000" font-family="sans-serif" font-size="11" lengthAdjust="spacingAndGlyphs" textLength="118" x="314.5" y="338.0908">RequestPaceKeyEvent()</text><ellipse cx="305.5" cy="348.9258" fill="#84BE84" rx="3" ry="3" style="stroke: #038048; stroke-width: 1.0;"/><text fill="#000000" font-family="sans-serif" font-size="11" lengthAdjust="spacingAndGlyphs" textLength="46" x="314.5" y="351.9268">getCard()</text><ellipse cx="305.5" cy="362.7617" fill="#84BE84" rx="3" ry="3" style="stroke: #038048; stroke-width: 1.0;"/><text fill="#000000" font-family="sans-serif" font-size="11" lengthAdjust="spacingAndGlyphs" textLength="111" x="314.5" y="365.7627">getResponseListener()</text><!--class de.gematik.ti.openhealthcard.events.request.RequestPinNumberEvent--><rect fill="#FEFECE" filter="url(#f3rxn3897fk6g)" height="103.3438" id="de.gematik.ti.openhealthcard.events.request.RequestPinNumberEvent" style="stroke: #A80036; stroke-width: 1.5;" width="172" x="487" y="262"/><ellipse cx="502" cy="278" fill="#ADD1B2" rx="11" ry="11" style="stroke: #A80036; stroke-width: 1.0;"/><path d="M504,274.5 Q504.2031,274 504.4375,273.75 Q504.6719,273.5 504.9375,273.5 Q505.4063,273.5 505.7031,273.7813 Q506,274.0625 506,274.7188 L506,276.2813 Q506,276.9375 505.7188,277.2188 Q505.4375,277.5 505,277.5 Q504.6094,277.5 504.3594,277.3281 Q504.1094,277.1563 504,276.7031 Q503.9531,276.3906 503.7813,276.2188 Q503.4688,275.8906 502.9063,275.7031 Q502.3438,275.5 501.7813,275.5 Q501.0781,275.5 500.4844,275.7813 Q499.9063,276.0625 499.4531,276.6875 Q499,277.3125 499,278.1719 L499,279.0938 Q499,280.125 499.8438,280.8125 Q500.6875,281.5 502.1875,281.5 Q503.0781,281.5 503.7031,281.2969 Q504.0625,281.1875 504.4688,280.8281 Q504.7344,280.625 504.875,280.5625 Q505.0156,280.5 505.1875,280.5 Q505.5156,280.5 505.75,280.7656 Q506,281.0156 506,281.375 Q506,281.7188 505.6563,282.125 Q505.1563,282.7188 504.3594,283.0469 Q503.3125,283.5 502.0313,283.5 Q500.5313,283.5 499.3281,282.9063 Q498.3594,282.4375 497.6719,281.4219 Q497,280.4063 497,279.2031 L497,278.1094 Q497,276.8594 497.5938,275.7656 Q498.2031,274.6719 499.25,274.0938 Q500.3125,273.5 501.5,273.5 Q502.2188,273.5 502.8438,273.75 Q503.4688,274 504,274.5 Z "/><text fill="#000000" font-family="sans-serif" font-size="12" lengthAdjust="spacingAndGlyphs" textLength="140" x="516" y="282.9102">RequestPinNumberEvent</text><line style="stroke: #A80036; stroke-width: 1.5;" x1="488" x2="658" y1="294" y2="294"/><line style="stroke: #A80036; stroke-width: 1.5;" x1="488" x2="658" y1="302" y2="302"/><ellipse cx="498" cy="314.418" fill="#84BE84" rx="3" ry="3" style="stroke: #038048; stroke-width: 1.0;"/><text fill="#000000" font-family="sans-serif" font-size="11" lengthAdjust="spacingAndGlyphs" textLength="126" x="507" y="317.4189">RequestPinNumberEvent()</text><ellipse cx="498" cy="328.2539" fill="#84BE84" rx="3" ry="3" style="stroke: #038048; stroke-width: 1.0;"/><text fill="#000000" font-family="sans-serif" font-size="11" lengthAdjust="spacingAndGlyphs" textLength="126" x="507" y="331.2549">RequestPinNumberEvent()</text><ellipse cx="498" cy="342.0898" fill="#84BE84" rx="3" ry="3" style="stroke: #038048; stroke-width: 1.0;"/><text fill="#000000" font-family="sans-serif" font-size="11" lengthAdjust="spacingAndGlyphs" textLength="61" x="507" y="345.0908">getPinType()</text><ellipse cx="498" cy="355.9258" fill="#84BE84" rx="3" ry="3" style="stroke: #038048; stroke-width: 1.0;"/><text fill="#000000" font-family="sans-serif" font-size="11" lengthAdjust="spacingAndGlyphs" textLength="111" x="507" y="358.9268">getResponseListener()</text><!--class de.gematik.ti.openhealthcard.events.response.callbacks.IGeneralResponseListener--><rect fill="#FEFECE" filter="url(#f3rxn3897fk6g)" height="48" id="de.gematik.ti.openhealthcard.events.response.callbacks.IGeneralResponseListener" style="stroke: #A80036; stroke-width: 1.5;" width="182" x="715" y="289.5"/><ellipse cx="730" cy="305.5" fill="#ADD1B2" rx="11" ry="11" style="stroke: #A80036; stroke-width: 1.0;"/><path d="M732,302 Q732.2031,301.5 732.4375,301.25 Q732.6719,301 732.9375,301 Q733.4063,301 733.7031,301.2813 Q734,301.5625 734,302.2188 L734,303.7813 Q734,304.4375 733.7188,304.7188 Q733.4375,305 733,305 Q732.6094,305 732.3594,304.8281 Q732.1094,304.6563 732,304.2031 Q731.9531,303.8906 731.7813,303.7188 Q731.4688,303.3906 730.9063,303.2031 Q730.3438,303 729.7813,303 Q729.0781,303 728.4844,303.2813 Q727.9063,303.5625 727.4531,304.1875 Q727,304.8125 727,305.6719 L727,306.5938 Q727,307.625 727.8438,308.3125 Q728.6875,309 730.1875,309 Q731.0781,309 731.7031,308.7969 Q732.0625,308.6875 732.4688,308.3281 Q732.7344,308.125 732.875,308.0625 Q733.0156,308 733.1875,308 Q733.5156,308 733.75,308.2656 Q734,308.5156 734,308.875 Q734,309.2188 733.6563,309.625 Q733.1563,310.2188 732.3594,310.5469 Q731.3125,311 730.0313,311 Q728.5313,311 727.3281,310.4063 Q726.3594,309.9375 725.6719,308.9219 Q725,307.9063 725,306.7031 L725,305.6094 Q725,304.3594 725.5938,303.2656 Q726.2031,302.1719 727.25,301.5938 Q728.3125,301 729.5,301 Q730.2188,301 730.8438,301.25 Q731.4688,301.5 732,302 Z "/><text fill="#000000" font-family="sans-serif" font-size="12" lengthAdjust="spacingAndGlyphs" textLength="150" x="744" y="310.4102">IGeneralResponseListener</text><line style="stroke: #A80036; stroke-width: 1.5;" x1="716" x2="896" y1="321.5" y2="321.5"/><line style="stroke: #A80036; stroke-width: 1.5;" x1="716" x2="896" y1="329.5" y2="329.5"/><!--class de.gematik.ti.openhealthcard.events.control.PinType--><rect fill="#FEFECE" filter="url(#f3rxn3897fk6g)" height="48" id="de.gematik.ti.openhealthcard.events.control.PinType" style="stroke: #A80036; stroke-width: 1.5;" width="76" x="535" y="474"/><ellipse cx="550" cy="490" fill="#ADD1B2" rx="11" ry="11" style="stroke: #A80036; stroke-width: 1.0;"/><path d="M552,486.5 Q552.2031,486 552.4375,485.75 Q552.6719,485.5 552.9375,485.5 Q553.4063,485.5 553.7031,485.7813 Q554,486.0625 554,486.7188 L554,488.2813 Q554,488.9375 553.7188,489.2188 Q553.4375,489.5 553,489.5 Q552.6094,489.5 552.3594,489.3281 Q552.1094,489.1563 552,488.7031 Q551.9531,488.3906 551.7813,488.2188 Q551.4688,487.8906 550.9063,487.7031 Q550.3438,487.5 549.7813,487.5 Q549.0781,487.5 548.4844,487.7813 Q547.9063,488.0625 547.4531,488.6875 Q547,489.3125 547,490.1719 L547,491.0938 Q547,492.125 547.8438,492.8125 Q548.6875,493.5 550.1875,493.5 Q551.0781,493.5 551.7031,493.2969 Q552.0625,493.1875 552.4688,492.8281 Q552.7344,492.625 552.875,492.5625 Q553.0156,492.5 553.1875,492.5 Q553.5156,492.5 553.75,492.7656 Q554,493.0156 554,493.375 Q554,493.7188 553.6563,494.125 Q553.1563,494.7188 552.3594,495.0469 Q551.3125,495.5 550.0313,495.5 Q548.5313,495.5 547.3281,494.9063 Q546.3594,494.4375 545.6719,493.4219 Q545,492.4063 545,491.2031 L545,490.1094 Q545,488.8594 545.5938,487.7656 Q546.2031,486.6719 547.25,486.0938 Q548.3125,485.5 549.5,485.5 Q550.2188,485.5 550.8438,485.75 Q551.4688,486 552,486.5 Z "/><text fill="#000000" font-family="sans-serif" font-size="12" lengthAdjust="spacingAndGlyphs" textLength="44" x="564" y="494.9102">PinType</text><line style="stroke: #A80036; stroke-width: 1.5;" x1="536" x2="610" y1="506" y2="506"/><line style="stroke: #A80036; stroke-width: 1.5;" x1="536" x2="610" y1="514" y2="514"/><!--link de.gematik.ti.openhealthcard.events.request.AbstractRequestEvent to de.gematik.ti.openhealthcard.events.response.callbacks.IGeneralResponseListener--><path d="M575.838,179.103 C640.098,216.346 719.253,262.223 766.004,289.319 " fill="none" id="de.gematik.ti.openhealthcard.events.request.AbstractRequestEvent-de.gematik.ti.openhealthcard.events.response.callbacks.IGeneralResponseListener" style="stroke: #A80036; stroke-width: 1.0;"/><polygon fill="#FFFFFF" points="564.434,172.493,567.6194,178.9624,574.8163,178.5103,571.6309,172.0409,564.434,172.493" style="stroke: #A80036; stroke-width: 1.0;"/><text fill="#000000" font-family="sans-serif" font-size="13" lengthAdjust="spacingAndGlyphs" textLength="99" x="650" y="221.4951">responseListener</text><!--link de.gematik.ti.openhealthcard.events.request.AbstractRequestEvent to de.gematik.ti.openhealthcard.events.request.RequestCardAccessNumberEvent--><path d="M364.441,184.166 C317.984,211.84 264.923,243.447 223.085,268.369 " fill="none" id="de.gematik.ti.openhealthcard.events.request.AbstractRequestEvent-de.gematik.ti.openhealthcard.events.request.RequestCardAccessNumberEvent" style="stroke: #A80036; stroke-width: 1.0;"/><polygon fill="none" points="361.121,177.996,381.886,173.775,368.286,190.024,361.121,177.996" style="stroke: #A80036; stroke-width: 1.0;"/><!--link de.gematik.ti.openhealthcard.events.request.AbstractRequestEvent to de.gematik.ti.openhealthcard.events.request.RequestPaceKeyEvent--><path d="M433.899,194.965 C423.588,214.866 412.626,236.021 402.887,254.819 " fill="none" id="de.gematik.ti.openhealthcard.events.request.AbstractRequestEvent-de.gematik.ti.openhealthcard.events.request.RequestPaceKeyEvent" style="stroke: #A80036; stroke-width: 1.0;"/><polygon fill="none" points="427.716,191.682,443.132,177.145,440.146,198.123,427.716,191.682" style="stroke: #A80036; stroke-width: 1.0;"/><!--link de.gematik.ti.openhealthcard.events.request.AbstractRequestEvent to de.gematik.ti.openhealthcard.events.request.RequestPinNumberEvent--><path d="M512.137,195.034 C523.718,217.385 536.116,241.313 546.68,261.702 " fill="none" id="de.gematik.ti.openhealthcard.events.request.AbstractRequestEvent-de.gematik.ti.openhealthcard.events.request.RequestPinNumberEvent" style="stroke: #A80036; stroke-width: 1.0;"/><polygon fill="none" points="505.854,198.123,502.868,177.145,518.284,191.682,505.854,198.123" style="stroke: #A80036; stroke-width: 1.0;"/><!--link de.gematik.ti.openhealthcard.events.request.RequestPinNumberEvent to de.gematik.ti.openhealthcard.events.control.PinType--><path d="M573,378.608 C573,411.554 573,449.694 573,473.5847 " fill="none" id="de.gematik.ti.openhealthcard.events.request.RequestPinNumberEvent-de.gematik.ti.openhealthcard.events.control.PinType" style="stroke: #A80036; stroke-width: 1.0;"/><polygon fill="#FFFFFF" points="573,365.336,569,371.336,573,377.336,577,371.336,573,365.336" style="stroke: #A80036; stroke-width: 1.0;"/><text fill="#000000" font-family="sans-serif" font-size="13" lengthAdjust="spacingAndGlyphs" textLength="45" x="574" y="418.4951">pinType</text><!--
@startuml



  namespace de.gematik.ti.openhealthcard.events.request {
    abstract class de.gematik.ti.openhealthcard.events.request.AbstractRequestEvent {
        - errorMessage : Optional<String>
        + getErrorMessage()
        + getResponseListener()
        # AbstractRequestEvent()
        ~ setErrorMessage()
    }
  }


  namespace de.gematik.ti.openhealthcard.events.request {
    class de.gematik.ti.openhealthcard.events.request.RequestCardAccessNumberEvent {
        + RequestCardAccessNumberEvent()
        + RequestCardAccessNumberEvent()
        + getResponseListener()
    }
  }


  namespace de.gematik.ti.openhealthcard.events.request {
    class de.gematik.ti.openhealthcard.events.request.RequestPaceKeyEvent {
        - card : ICard
        + RequestPaceKeyEvent()
        + RequestPaceKeyEvent()
        + getCard()
        + getResponseListener()
    }
  }


  namespace de.gematik.ti.openhealthcard.events.request {
    class de.gematik.ti.openhealthcard.events.request.RequestPinNumberEvent {
        + RequestPinNumberEvent()
        + RequestPinNumberEvent()
        + getPinType()
        + getResponseListener()
    }
  }


  de.gematik.ti.openhealthcard.events.request.AbstractRequestEvent o- - de.gematik.ti.openhealthcard.events.response.callbacks.IGeneralResponseListener : responseListener
  de.gematik.ti.openhealthcard.events.request.RequestCardAccessNumberEvent -up-|> de.gematik.ti.openhealthcard.events.request.AbstractRequestEvent
  de.gematik.ti.openhealthcard.events.request.RequestPaceKeyEvent -up-|> de.gematik.ti.openhealthcard.events.request.AbstractRequestEvent
  de.gematik.ti.openhealthcard.events.request.RequestPinNumberEvent -up-|> de.gematik.ti.openhealthcard.events.request.AbstractRequestEvent
  de.gematik.ti.openhealthcard.events.request.RequestPinNumberEvent o- - de.gematik.ti.openhealthcard.events.control.PinType : pinType









@enduml

PlantUML version 1.2019.06(Fri May 24 19:10:25 CEST 2019)
(APACHE source distribution)
Java Runtime: OpenJDK Runtime Environment
JVM: OpenJDK 64-Bit Server VM
Java Version: 11.0.4+10-b304.69
Operating System: Windows 7
OS Version: 6.1
Default Encoding: Cp1252
Language: de
Country: DE
--></g></svg>